<?xml version="1.0" encoding="UTF-8" standalone="no"?>
<!DOCTYPE svg PUBLIC "-//W3C//DTD SVG 1.1//EN" "http://www.w3.org/Graphics/SVG/1.1/DTD/svg11.dtd">
<svg width="100%" height="100%" viewBox="0 0 1873 264" version="1.1" xmlns="http://www.w3.org/2000/svg" xmlns:xlink="http://www.w3.org/1999/xlink" xml:space="preserve" xmlns:serif="http://www.serif.com/" style="fill-rule:evenodd;clip-rule:evenodd;stroke-linecap:round;stroke-linejoin:round;stroke-miterlimit:1.5;">
    <g>
        <g transform="matrix(1.11851,0,0,1.11851,-17.3861,-12.6724)">
            <g transform="matrix(0.390131,0.390131,-0.390131,0.390131,159.766,-422.943)">
                <circle cx="673.789" cy="741.51" r="199.373" style="fill:none;stroke:white;stroke-width:19.45px;"/>
            </g>
            <g transform="matrix(0.336931,0.336931,-0.336931,0.336931,166.77,-358.256)">
                <circle cx="673.789" cy="741.51" r="199.373" style="fill:none;stroke:white;stroke-width:22.52px;"/>
            </g>
            <g transform="matrix(0.274865,0.274865,-0.274865,0.274865,174.941,-282.788)">
                <circle cx="673.789" cy="741.51" r="199.373" style="fill:none;stroke:white;stroke-width:27.6px;"/>
            </g>
            <g transform="matrix(0.212799,0.212799,-0.212799,0.212799,183.112,-207.32)">
                <circle cx="673.789" cy="741.51" r="199.373" style="fill:none;stroke:white;stroke-width:35.65px;"/>
            </g>
        </g>
        <g transform="matrix(3.9184,0,0,3.9184,-4252.95,-6292.57)">
            <path d="M1187.04,1656.85L1164.14,1656.85C1163.55,1656.85 1162.92,1656.78 1162.25,1656.64C1161.57,1656.5 1160.9,1656.28 1160.25,1655.99C1159.59,1655.7 1158.96,1655.32 1158.35,1654.86C1157.75,1654.39 1157.22,1653.83 1156.76,1653.17C1156.29,1652.51 1155.92,1651.75 1155.64,1650.88C1155.37,1650.01 1155.23,1649.03 1155.23,1647.93L1155.23,1630.75C1155.23,1630.16 1155.3,1629.53 1155.44,1628.86C1155.58,1628.18 1155.79,1627.51 1156.08,1626.85C1156.38,1626.19 1156.76,1625.56 1157.23,1624.96C1157.7,1624.36 1158.27,1623.83 1158.93,1623.36C1159.59,1622.9 1160.35,1622.53 1161.21,1622.25C1162.07,1621.97 1163.05,1621.84 1164.14,1621.84L1187.04,1621.84L1187.04,1628.18L1164.14,1628.18C1163.31,1628.18 1162.67,1628.4 1162.24,1628.84C1161.8,1629.28 1161.58,1629.93 1161.58,1630.8L1161.58,1647.93C1161.58,1648.75 1161.8,1649.38 1162.25,1649.83C1162.69,1650.27 1163.33,1650.5 1164.14,1650.5L1187.04,1650.5L1187.04,1656.85Z" style="fill:white;fill-rule:nonzero;stroke:white;stroke-width:0.26px;stroke-linecap:butt;stroke-miterlimit:2;"/>
            <path d="M1220.73,1647.93C1220.73,1649.03 1220.59,1650.01 1220.32,1650.88C1220.04,1651.75 1219.67,1652.51 1219.22,1653.17C1218.76,1653.83 1218.23,1654.39 1217.63,1654.86C1217.03,1655.32 1216.4,1655.7 1215.74,1655.99C1215.08,1656.28 1214.41,1656.5 1213.74,1656.64C1213.06,1656.78 1212.42,1656.85 1211.82,1656.85L1200.37,1656.85C1199.49,1656.85 1198.53,1656.69 1197.49,1656.38C1196.45,1656.07 1195.48,1655.56 1194.6,1654.86C1193.71,1654.15 1192.97,1653.23 1192.38,1652.1C1191.78,1650.97 1191.48,1649.58 1191.48,1647.93L1191.48,1639.34C1191.48,1637.71 1191.78,1636.33 1192.38,1635.2C1192.97,1634.07 1193.71,1633.15 1194.6,1632.44C1195.48,1631.74 1196.45,1631.23 1197.49,1630.92C1198.53,1630.61 1199.49,1630.45 1200.37,1630.45L1211.82,1630.45C1213.45,1630.45 1214.83,1630.75 1215.97,1631.33C1217.11,1631.92 1218.03,1632.66 1218.73,1633.54C1219.43,1634.43 1219.94,1635.39 1220.26,1636.44C1220.57,1637.48 1220.73,1638.45 1220.73,1639.34L1220.73,1647.93ZM1214.38,1639.39C1214.38,1638.51 1214.16,1637.86 1213.73,1637.44C1213.29,1637.01 1212.65,1636.8 1211.82,1636.8L1200.42,1636.8C1199.57,1636.8 1198.93,1637.02 1198.49,1637.45C1198.05,1637.88 1197.83,1638.51 1197.83,1639.34L1197.83,1647.93C1197.83,1648.77 1198.05,1649.4 1198.49,1649.84C1198.93,1650.28 1199.57,1650.5 1200.42,1650.5L1211.82,1650.5C1212.68,1650.5 1213.33,1650.28 1213.75,1649.84C1214.17,1649.4 1214.38,1648.77 1214.38,1647.93L1214.38,1639.39Z" style="fill:white;fill-rule:nonzero;stroke:white;stroke-width:0.26px;stroke-linecap:butt;stroke-miterlimit:2;"/>
            <path d="M1249.22,1636.8L1234.94,1636.8C1234.08,1636.8 1233.43,1637.02 1232.99,1637.45C1232.55,1637.88 1232.33,1638.51 1232.33,1639.34L1232.33,1656.85L1225.98,1656.85L1225.98,1639.34C1225.98,1638.25 1226.12,1637.27 1226.4,1636.41C1226.67,1635.55 1227.04,1634.79 1227.51,1634.13C1227.97,1633.47 1228.5,1632.91 1229.11,1632.44C1229.71,1631.98 1230.34,1631.6 1231,1631.31C1231.66,1631.02 1232.32,1630.8 1233,1630.66C1233.67,1630.52 1234.31,1630.45 1234.89,1630.45L1249.22,1630.45L1249.22,1636.8Z" style="fill:white;fill-rule:nonzero;stroke:white;stroke-width:0.26px;stroke-linecap:butt;stroke-miterlimit:2;"/>
            <path d="M1282.5,1659.38C1282.5,1660.48 1282.36,1661.46 1282.08,1662.33C1281.81,1663.2 1281.44,1663.96 1280.99,1664.62C1280.53,1665.28 1280,1665.84 1279.4,1666.31C1278.8,1666.77 1278.17,1667.15 1277.51,1667.44C1276.85,1667.74 1276.18,1667.95 1275.52,1668.09C1274.85,1668.23 1274.21,1668.3 1273.61,1668.3L1262.16,1668.3L1262.16,1661.95L1273.61,1661.95C1274.46,1661.95 1275.09,1661.73 1275.52,1661.29C1275.94,1660.85 1276.15,1660.22 1276.15,1659.38L1276.15,1630.45L1282.5,1630.45L1282.5,1659.38ZM1273.61,1656.85L1262.16,1656.85C1261.25,1656.85 1260.28,1656.69 1259.25,1656.38C1258.21,1656.07 1257.25,1655.56 1256.35,1654.86C1255.46,1654.15 1254.72,1653.23 1254.13,1652.1C1253.54,1650.97 1253.25,1649.58 1253.25,1647.93L1253.25,1630.45L1259.6,1630.45L1259.6,1647.93C1259.6,1648.77 1259.82,1649.4 1260.26,1649.84C1260.7,1650.28 1261.35,1650.5 1262.21,1650.5L1273.61,1650.5L1273.61,1656.85Z" style="fill:white;fill-rule:nonzero;stroke:white;stroke-width:0.26px;stroke-linecap:butt;stroke-miterlimit:2;"/>
            <path d="M1317.8,1656.85L1311.45,1656.85L1311.45,1642.2C1311.45,1641.37 1311.31,1640.62 1311.03,1639.96C1310.74,1639.3 1310.36,1638.74 1309.87,1638.27C1309.38,1637.8 1308.81,1637.43 1308.15,1637.18C1307.49,1636.93 1306.78,1636.8 1306.01,1636.8L1294.9,1636.8L1294.9,1656.85L1288.55,1656.85L1288.55,1633.6C1288.55,1633.16 1288.63,1632.75 1288.8,1632.37C1288.96,1631.99 1289.19,1631.65 1289.48,1631.37C1289.78,1631.09 1290.12,1630.86 1290.51,1630.7C1290.9,1630.54 1291.31,1630.45 1291.75,1630.45L1306.06,1630.45C1306.86,1630.45 1307.7,1630.54 1308.59,1630.72C1309.47,1630.9 1310.35,1631.19 1311.22,1631.59C1312.09,1631.99 1312.92,1632.49 1313.71,1633.1C1314.5,1633.71 1315.2,1634.45 1315.81,1635.33C1316.42,1636.2 1316.91,1637.2 1317.27,1638.34C1317.62,1639.48 1317.8,1640.77 1317.8,1642.2L1317.8,1656.85Z" style="fill:white;fill-rule:nonzero;stroke:white;stroke-width:0.26px;stroke-linecap:butt;stroke-miterlimit:2;"/>
            <path d="M1351.76,1639.19C1351.76,1640.07 1351.61,1641.02 1351.3,1642.04C1350.99,1643.06 1350.49,1644 1349.8,1644.87C1349.11,1645.74 1348.2,1646.47 1347.09,1647.06C1345.97,1647.64 1344.62,1647.93 1343.02,1647.93L1331.57,1647.93L1331.57,1641.9L1343.02,1641.9C1343.88,1641.9 1344.55,1641.64 1345.02,1641.11C1345.5,1640.58 1345.73,1639.93 1345.73,1639.15C1345.73,1638.32 1345.47,1637.66 1344.94,1637.19C1344.41,1636.72 1343.77,1636.49 1343.02,1636.49L1331.57,1636.49C1330.71,1636.49 1330.04,1636.75 1329.57,1637.28C1329.1,1637.81 1328.86,1638.46 1328.86,1639.24L1328.86,1648.11C1328.86,1648.95 1329.13,1649.61 1329.65,1650.08C1330.18,1650.56 1330.84,1650.79 1331.62,1650.79L1343.02,1650.79L1343.02,1656.85L1331.57,1656.85C1330.69,1656.85 1329.75,1656.69 1328.73,1656.38C1327.71,1656.07 1326.77,1655.57 1325.89,1654.88C1325.02,1654.19 1324.3,1653.29 1323.71,1652.17C1323.12,1651.06 1322.83,1649.7 1322.83,1648.11L1322.83,1639.19C1322.83,1638.32 1322.99,1637.37 1323.3,1636.35C1323.6,1635.33 1324.11,1634.39 1324.8,1633.52C1325.49,1632.65 1326.39,1631.92 1327.51,1631.33C1328.62,1630.75 1329.98,1630.45 1331.57,1630.45L1343.02,1630.45C1343.9,1630.45 1344.85,1630.61 1345.87,1630.92C1346.88,1631.23 1347.83,1631.73 1348.7,1632.42C1349.57,1633.11 1350.3,1634.02 1350.88,1635.13C1351.47,1636.24 1351.76,1637.6 1351.76,1639.19Z" style="fill:white;fill-rule:nonzero;stroke:white;stroke-width:0.26px;stroke-linecap:butt;stroke-miterlimit:2;"/>
            <path d="M1391.68,1649.15C1391.68,1649.94 1391.55,1650.78 1391.28,1651.67C1391.01,1652.57 1390.57,1653.39 1389.96,1654.16C1389.35,1654.92 1388.55,1655.56 1387.58,1656.08C1386.6,1656.59 1385.4,1656.85 1383.99,1656.85L1359.89,1656.85C1359.44,1656.85 1359.01,1656.76 1358.62,1656.6C1358.23,1656.44 1357.89,1656.22 1357.61,1655.93C1357.32,1655.64 1357.1,1655.31 1356.94,1654.92C1356.78,1654.53 1356.69,1654.1 1356.69,1653.65L1356.69,1625.03C1356.69,1624.6 1356.78,1624.18 1356.94,1623.79C1357.1,1623.4 1357.32,1623.06 1357.61,1622.76C1357.89,1622.47 1358.23,1622.24 1358.62,1622.08C1359.01,1621.92 1359.44,1621.84 1359.89,1621.84L1381.13,1621.84C1381.91,1621.84 1382.75,1621.97 1383.65,1622.25C1384.54,1622.53 1385.38,1622.97 1386.15,1623.58C1386.92,1624.19 1387.57,1624.99 1388.08,1625.96C1388.59,1626.94 1388.85,1628.13 1388.85,1629.55L1388.85,1630.75C1388.85,1631.87 1388.66,1633.08 1388.29,1634.37C1387.91,1635.67 1387.31,1636.89 1386.48,1638.05C1387.19,1638.49 1387.87,1639.02 1388.49,1639.63C1389.12,1640.25 1389.67,1640.97 1390.14,1641.78C1390.61,1642.6 1390.99,1643.52 1391.26,1644.54C1391.54,1645.57 1391.68,1646.7 1391.68,1647.93L1391.68,1649.15ZM1385.33,1647.93C1385.33,1647.11 1385.2,1646.36 1384.94,1645.7C1384.68,1645.04 1384.31,1644.48 1383.84,1644C1383.37,1643.53 1382.8,1643.17 1382.13,1642.92C1381.47,1642.66 1380.72,1642.54 1379.89,1642.54L1365.58,1642.54L1365.58,1636.14L1377.03,1636.14C1377.86,1636.14 1378.61,1636.02 1379.28,1635.76C1379.94,1635.51 1380.51,1635.15 1380.99,1634.68C1381.46,1634.21 1381.82,1633.64 1382.07,1632.98C1382.32,1632.32 1382.45,1631.58 1382.45,1630.75L1382.45,1629.55C1382.45,1628.64 1382.01,1628.18 1381.13,1628.18L1363.04,1628.18L1363.04,1650.5L1383.99,1650.5C1384.1,1650.5 1384.24,1650.49 1384.4,1650.47C1384.57,1650.46 1384.71,1650.41 1384.84,1650.33C1384.97,1650.25 1385.09,1650.11 1385.18,1649.91C1385.28,1649.72 1385.33,1649.45 1385.33,1649.11L1385.33,1647.93Z" style="fill:white;fill-rule:nonzero;stroke:white;stroke-width:0.26px;stroke-linecap:butt;stroke-miterlimit:2;"/>
            <path d="M1419.58,1636.8L1405.3,1636.8C1404.44,1636.8 1403.79,1637.02 1403.35,1637.45C1402.91,1637.88 1402.69,1638.51 1402.69,1639.34L1402.69,1656.85L1396.34,1656.85L1396.34,1639.34C1396.34,1638.25 1396.48,1637.27 1396.76,1636.41C1397.03,1635.55 1397.4,1634.79 1397.87,1634.13C1398.33,1633.47 1398.87,1632.91 1399.47,1632.44C1400.07,1631.98 1400.7,1631.6 1401.36,1631.31C1402.02,1631.02 1402.69,1630.8 1403.36,1630.66C1404.04,1630.52 1404.67,1630.45 1405.25,1630.45L1419.58,1630.45L1419.58,1636.8Z" style="fill:white;fill-rule:nonzero;stroke:white;stroke-width:0.26px;stroke-linecap:butt;stroke-miterlimit:2;"/>
            <path d="M1452.37,1647.93C1452.37,1649.03 1452.23,1650.01 1451.96,1650.88C1451.68,1651.75 1451.31,1652.51 1450.86,1653.17C1450.4,1653.83 1449.87,1654.39 1449.27,1654.86C1448.67,1655.32 1448.04,1655.7 1447.38,1655.99C1446.72,1656.28 1446.05,1656.5 1445.38,1656.64C1444.7,1656.78 1444.06,1656.85 1443.46,1656.85L1432.01,1656.85C1431.13,1656.85 1430.17,1656.69 1429.13,1656.38C1428.09,1656.07 1427.12,1655.56 1426.24,1654.86C1425.35,1654.15 1424.61,1653.23 1424.02,1652.1C1423.42,1650.97 1423.12,1649.58 1423.12,1647.93L1423.12,1639.34C1423.12,1637.71 1423.42,1636.33 1424.02,1635.2C1424.61,1634.07 1425.35,1633.15 1426.24,1632.44C1427.12,1631.74 1428.09,1631.23 1429.13,1630.92C1430.17,1630.61 1431.13,1630.45 1432.01,1630.45L1443.46,1630.45C1445.09,1630.45 1446.47,1630.75 1447.61,1631.33C1448.75,1631.92 1449.67,1632.66 1450.37,1633.54C1451.07,1634.43 1451.58,1635.39 1451.9,1636.44C1452.21,1637.48 1452.37,1638.45 1452.37,1639.34L1452.37,1647.93ZM1446.03,1639.39C1446.03,1638.51 1445.81,1637.86 1445.37,1637.44C1444.93,1637.01 1444.29,1636.8 1443.46,1636.8L1432.06,1636.8C1431.21,1636.8 1430.57,1637.02 1430.13,1637.45C1429.69,1637.88 1429.47,1638.51 1429.47,1639.34L1429.47,1647.93C1429.47,1648.77 1429.69,1649.4 1430.13,1649.84C1430.57,1650.28 1431.21,1650.5 1432.06,1650.5L1443.46,1650.5C1444.32,1650.5 1444.97,1650.28 1445.39,1649.84C1445.81,1649.4 1446.03,1648.77 1446.03,1647.93L1446.03,1639.39Z" style="fill:white;fill-rule:nonzero;stroke:white;stroke-width:0.26px;stroke-linecap:butt;stroke-miterlimit:2;"/>
            <path d="M1501.23,1630.45C1500.22,1632.72 1499.12,1634.94 1497.95,1637.13C1496.78,1639.32 1495.56,1641.39 1494.28,1643.35C1493,1645.3 1491.69,1647.1 1490.36,1648.75C1489.03,1650.4 1487.7,1651.83 1486.39,1653.03C1485.08,1654.22 1483.81,1655.16 1482.56,1655.83C1481.32,1656.51 1480.14,1656.85 1479.03,1656.85C1478.58,1656.85 1478.15,1656.76 1477.76,1656.6C1477.37,1656.44 1477.03,1656.22 1476.74,1655.93C1476.44,1655.64 1476.22,1655.31 1476.05,1654.92C1475.89,1654.53 1475.81,1654.1 1475.81,1653.65L1475.81,1641.81L1463.21,1655.89C1462.89,1656.22 1462.53,1656.46 1462.15,1656.61C1461.77,1656.77 1461.37,1656.85 1460.97,1656.85C1460.53,1656.85 1460.12,1656.76 1459.73,1656.6C1459.35,1656.44 1459.01,1656.22 1458.72,1655.93C1458.43,1655.64 1458.19,1655.31 1458.02,1654.92C1457.85,1654.53 1457.77,1654.1 1457.77,1653.65L1457.77,1630.45L1464.12,1630.45L1464.12,1645.49L1476.76,1631.36C1477.22,1630.9 1477.76,1630.61 1478.38,1630.49C1479.01,1630.37 1479.63,1630.44 1480.23,1630.7C1480.83,1630.94 1481.31,1631.33 1481.66,1631.86C1482.01,1632.39 1482.18,1632.97 1482.18,1633.6L1482.18,1648.69C1483.55,1647.37 1484.79,1645.98 1485.89,1644.52C1487,1643.05 1488.03,1641.54 1488.98,1639.99C1489.93,1638.43 1490.83,1636.86 1491.67,1635.25C1492.51,1633.65 1493.32,1632.05 1494.12,1630.45L1501.23,1630.45Z" style="fill:white;fill-rule:nonzero;stroke:white;stroke-width:0.26px;stroke-linecap:butt;stroke-miterlimit:2;"/>
            <path d="M1528.93,1647.93C1528.93,1649.03 1528.8,1650.01 1528.52,1650.88C1528.24,1651.75 1527.88,1652.51 1527.42,1653.17C1526.96,1653.83 1526.44,1654.39 1525.83,1654.86C1525.23,1655.32 1524.6,1655.7 1523.94,1655.99C1523.28,1656.28 1522.62,1656.5 1521.94,1656.64C1521.27,1656.78 1520.63,1656.85 1520.02,1656.85L1502.84,1656.85L1502.84,1650.5L1519.98,1650.5C1520.84,1650.5 1521.49,1650.28 1521.93,1649.84C1522.37,1649.4 1522.59,1648.77 1522.59,1647.93C1522.51,1646.24 1521.65,1645.4 1520.02,1645.4L1510.18,1645.4C1508.79,1645.4 1507.6,1645.15 1506.62,1644.66C1505.64,1644.17 1504.85,1643.57 1504.24,1642.83C1503.63,1642.1 1503.19,1641.31 1502.92,1640.46C1502.65,1639.62 1502.52,1638.83 1502.52,1638.1C1502.52,1636.68 1502.77,1635.49 1503.28,1634.52C1503.78,1633.55 1504.41,1632.77 1505.18,1632.16C1505.94,1631.56 1506.78,1631.13 1507.67,1630.86C1508.57,1630.59 1509.4,1630.45 1510.18,1630.45L1525.79,1630.45L1525.79,1636.8L1510.23,1636.8C1509.91,1636.8 1509.65,1636.84 1509.46,1636.91C1509.28,1636.99 1509.14,1637.08 1509.05,1637.2C1508.96,1637.33 1508.91,1637.46 1508.89,1637.6C1508.88,1637.73 1508.87,1637.87 1508.87,1638C1508.88,1638.26 1508.93,1638.46 1509.01,1638.61C1509.09,1638.76 1509.2,1638.86 1509.32,1638.93C1509.44,1638.99 1509.58,1639.03 1509.73,1639.04C1509.89,1639.04 1510.04,1639.05 1510.18,1639.05L1520.02,1639.05C1521.65,1639.05 1523.04,1639.34 1524.17,1639.93C1525.31,1640.51 1526.23,1641.25 1526.93,1642.14C1527.63,1643.02 1528.14,1643.99 1528.46,1645.03C1528.78,1646.07 1528.93,1647.04 1528.93,1647.93Z" style="fill:white;fill-rule:nonzero;stroke:white;stroke-width:0.26px;stroke-linecap:butt;stroke-miterlimit:2;"/>
            <path d="M1561.77,1639.19C1561.77,1640.07 1561.62,1641.02 1561.31,1642.04C1561,1643.06 1560.5,1644 1559.81,1644.87C1559.12,1645.74 1558.21,1646.47 1557.1,1647.06C1555.98,1647.64 1554.63,1647.93 1553.03,1647.93L1541.58,1647.93L1541.58,1641.9L1553.03,1641.9C1553.89,1641.9 1554.56,1641.64 1555.03,1641.11C1555.51,1640.58 1555.74,1639.93 1555.74,1639.15C1555.74,1638.32 1555.48,1637.66 1554.95,1637.19C1554.42,1636.72 1553.78,1636.49 1553.03,1636.49L1541.58,1636.49C1540.72,1636.49 1540.05,1636.75 1539.58,1637.28C1539.11,1637.81 1538.87,1638.46 1538.87,1639.24L1538.87,1648.11C1538.87,1648.95 1539.14,1649.61 1539.66,1650.08C1540.19,1650.56 1540.85,1650.79 1541.63,1650.79L1553.03,1650.79L1553.03,1656.85L1541.58,1656.85C1540.7,1656.85 1539.75,1656.69 1538.74,1656.38C1537.72,1656.07 1536.78,1655.57 1535.9,1654.88C1535.03,1654.19 1534.31,1653.29 1533.72,1652.17C1533.13,1651.06 1532.84,1649.7 1532.84,1648.11L1532.84,1639.19C1532.84,1638.32 1533,1637.37 1533.31,1636.35C1533.61,1635.33 1534.12,1634.39 1534.81,1633.52C1535.5,1632.65 1536.4,1631.92 1537.52,1631.33C1538.63,1630.75 1539.99,1630.45 1541.58,1630.45L1553.03,1630.45C1553.91,1630.45 1554.86,1630.61 1555.88,1630.92C1556.89,1631.23 1557.84,1631.73 1558.71,1632.42C1559.58,1633.11 1560.31,1634.02 1560.89,1635.13C1561.48,1636.24 1561.77,1637.6 1561.77,1639.19Z" style="fill:white;fill-rule:nonzero;stroke:white;stroke-width:0.26px;stroke-linecap:butt;stroke-miterlimit:2;"/>
        </g>
    </g>
</svg>
